<?xml version="1.0" encoding="utf-8"?>
<!-- Generator: Adobe Illustrator 22.0.0, SVG Export Plug-In . SVG Version: 6.00 Build 0)  -->
<svg version="1.1" id="Layer_1" xmlns="http://www.w3.org/2000/svg" xmlns:xlink="http://www.w3.org/1999/xlink" x="0px" y="0px"
	 viewBox="0 0 217.2 80" style="enable-background:new 0 0 217.2 80;" xml:space="preserve">
<style type="text/css">
	.st0{fill:#FF5F42;}
	.st1{fill:#3A3A3A;}
	.st2{display:none;}
	.st3{display:inline;}
</style>
<g id="BACKGROUND">
</g>
<g>
	<path class="st0" d="M23.8,40.9c3.7-4.4,2.2-11.9-3.4-16.6S7.2,19.4,3.5,23.8S1.3,35.7,6.9,40.4C12.5,45.2,20.1,45.4,23.8,40.9z"/>
	<path class="st0" d="M62.8,41.3c5.7-1.2,9.1-7.9,7.6-15.1s-7.3-12-13-10.9c-5.7,1.2-9.1,7.9-7.6,15.1
		C51.3,37.6,57.1,42.5,62.8,41.3z"/>
	<path class="st0" d="M39.7,30.3c5.5-1.8,8.2-8.9,6-15.9S37.2,3.2,31.6,5c-5.5,1.8-8.2,8.9-6,15.9C27.8,27.8,34.1,32.1,39.7,30.3z"
		/>
	<path class="st0" d="M73.1,49.6c-7-6.7-14.3-1.3-23.5-10.6c-9.2-9.2-17.4-2.7-17.4-2.7s-9.2,5.2-4.1,17.2c3.4,8,1,12.8,0.2,17.8
		c2.1-0.3,3.4-0.6,3.4-0.6l6.1-25.6c0.2-0.7,0.8-1.3,1.6-1.3c0.7-0.1,1.5,0.4,1.7,1.1l1.7,4l1.7-2.3c0.4-0.6,1.1-0.8,1.8-0.7
		s1.2,0.7,1.3,1.4l0.9,4.6c2.4,0.3,4.5,2.1,5.2,4.4l7.9,2.2c0.5,0.1,0.9,0.4,1.1,0.9c0.2,0.4,0.3,0.9,0.1,1.4
		c-1.9,5-6.1,8.5-11.2,9.1C50.9,70,50.1,70,49.4,70c0,0-0.4,3.6-0.8,7.6c3.4-2.9,7.4-5.7,7.4-5.7s7.8-5,12.3-6.5
		C72.7,63.8,80.1,56.3,73.1,49.6z"/>
	<path class="st0" d="M8.3,67.8c6.1,4.1,13.6,3.5,16.9-1.3c3.2-4.8,0.9-12-5.1-16.1C14,46.3,6.4,46.9,3.2,51.7
		C-0.1,56.5,2.2,63.7,8.3,67.8z"/>
</g>
<path class="st1" d="M108.6,7v27.2h-8.5V23.7H92v10.6h-8.5V7H92v9.8h8.1V7H108.6z"/>
<path class="st1" d="M123.9,13.2c1,0.6,1.8,1.4,2.3,2.4v-3h8.5v21.7h-8.5v-3c-0.5,1-1.3,1.8-2.3,2.4s-2.2,0.9-3.7,0.9
	c-1.7,0-3.2-0.4-4.6-1.3c-1.4-0.9-2.4-2.2-3.2-3.8c-0.8-1.7-1.2-3.7-1.2-5.9c0-2.3,0.4-4.3,1.2-5.9c0.8-1.7,1.9-3,3.2-3.8
	c1.4-0.9,2.9-1.3,4.6-1.3C121.7,12.3,122.9,12.6,123.9,13.2z M120.9,20.7c-0.6,0.6-0.9,1.5-0.9,2.7s0.3,2.1,0.9,2.7s1.3,1,2.3,1
	s1.7-0.3,2.3-1c0.6-0.6,0.9-1.5,0.9-2.7s-0.3-2.1-0.9-2.7c-0.6-0.6-1.3-1-2.3-1S121.5,20.1,120.9,20.7z"/>
<path class="st1" d="M157.7,13.6c1.4,0.9,2.4,2.2,3.2,3.8c0.8,1.7,1.2,3.7,1.2,5.9c0,2.3-0.4,4.3-1.2,5.9c-0.8,1.7-1.9,3-3.2,3.8
	c-1.4,0.9-2.9,1.3-4.6,1.3c-1.4,0-2.6-0.3-3.6-0.9c-1-0.6-1.8-1.4-2.3-2.4v13.3h-8.5V12.6h8.5v3c0.5-1,1.3-1.8,2.3-2.4
	c1-0.6,2.2-0.9,3.6-0.9C154.8,12.3,156.3,12.8,157.7,13.6z M148,20.7c-0.6,0.6-0.9,1.5-0.9,2.7s0.3,2.1,0.9,2.7c0.6,0.6,1.3,1,2.3,1
	s1.7-0.3,2.3-1c0.6-0.6,0.9-1.5,0.9-2.7s-0.3-2.1-0.9-2.7c-0.6-0.6-1.3-1-2.3-1S148.6,20.1,148,20.7z"/>
<path class="st1" d="M183.9,13.6c1.4,0.9,2.4,2.2,3.2,3.8c0.8,1.7,1.2,3.7,1.2,5.9c0,2.3-0.4,4.3-1.2,5.9c-0.8,1.7-1.9,3-3.2,3.8
	c-1.4,0.9-2.9,1.3-4.6,1.3c-1.4,0-2.6-0.3-3.6-0.9c-1-0.6-1.8-1.4-2.3-2.4v13.3h-8.5V12.6h8.5v3c0.5-1,1.3-1.8,2.3-2.4
	c1-0.6,2.2-0.9,3.6-0.9C181,12.3,182.5,12.8,183.9,13.6z M174.2,20.7c-0.6,0.6-0.9,1.5-0.9,2.7s0.3,2.1,0.9,2.7c0.6,0.6,1.3,1,2.3,1
	s1.7-0.3,2.3-1c0.6-0.6,0.9-1.5,0.9-2.7s-0.3-2.1-0.9-2.7c-0.6-0.6-1.3-1-2.3-1S174.8,20.1,174.2,20.7z"/>
<path class="st1" d="M198.1,12.6l4.1,11l3.8-11h9.4l-13.9,32.1h-9.3l5.5-11.5l-9-20.6C188.7,12.6,198.1,12.6,198.1,12.6z"/>
<path class="st1" d="M92,65.8v8.7h-8.5V47.2h11.9c3.3,0,5.9,0.8,7.7,2.5c1.8,1.7,2.7,4,2.7,6.8c0,1.7-0.4,3.3-1.2,4.7
	c-0.8,1.4-2,2.5-3.5,3.3c-1.6,0.8-3.4,1.2-5.6,1.2H92V65.8z M97.1,56.5c0-1.7-0.9-2.5-2.7-2.5H92v5h2.4C96.2,59,97.1,58.2,97.1,56.5
	z"/>
<path class="st1" d="M119.9,53.3c1,0.6,1.8,1.4,2.3,2.4v-3h8.5v21.7h-8.5v-3c-0.5,1-1.3,1.8-2.3,2.4s-2.2,0.9-3.7,0.9
	c-1.7,0-3.2-0.4-4.6-1.3s-2.4-2.2-3.2-3.8c-0.8-1.7-1.2-3.7-1.2-5.9s0.4-4.3,1.2-5.9s1.9-3,3.2-3.8c1.4-0.9,2.9-1.3,4.6-1.3
	C117.6,52.5,118.8,52.8,119.9,53.3z M116.8,60.9c-0.6,0.6-0.9,1.5-0.9,2.7s0.3,2.1,0.9,2.7s1.3,1,2.3,1s1.7-0.3,2.3-1
	c0.6-0.6,0.9-1.5,0.9-2.7s-0.3-2.1-0.9-2.7s-1.3-1-2.3-1S117.4,60.2,116.8,60.9z"/>
<path class="st1" d="M167.5,52.7l-5.2,21.7h-9.6l-2.6-12.2l-2.8,12.2h-9.6l-5.1-21.7h8.5l1.8,13.2l2.8-13.2h9.1l3,13.3l1.8-13.3
	H167.5z"/>
<path class="st1" d="M184.9,54.6c1.8,1.4,2.9,3.3,3.3,5.6h-8c-0.3-1.2-1.2-1.8-2.6-1.8c-0.8,0-1.2,0.3-1.2,0.9c0,0.4,0.3,0.8,0.9,1
	s1.5,0.5,2.8,0.7c1.6,0.3,3,0.7,4.2,1.1s2.2,1.1,3,2.1c0.8,0.9,1.3,2.2,1.3,3.9c0,1.3-0.4,2.4-1.1,3.4s-1.8,1.8-3.2,2.3
	c-1.4,0.6-3,0.8-4.9,0.8c-3.1,0-5.6-0.7-7.5-2c-1.8-1.3-3-3.3-3.4-5.8h8.2c0.2,1.3,1,1.9,2.7,1.9c0.9,0,1.3-0.3,1.3-0.9
	c0-0.5-0.3-0.8-0.9-1.1c-0.6-0.2-1.5-0.5-2.8-0.7c-1.7-0.3-3-0.7-4.1-1.1s-2-1-2.9-2c-0.8-0.9-1.2-2.2-1.2-3.8c0-1.3,0.3-2.5,1-3.5
	s1.7-1.8,3.1-2.4c1.4-0.6,3-0.9,5-0.9C180.8,52.5,183.1,53.2,184.9,54.6z"/>
<g id="DESIGNED_BY_FREEPIK" class="st2">
	<g id="XMLID_453_" class="st3">
		<g id="XMLID_562_">
			<path id="XMLID_728_" d="M-912.2,268.5v-0.2c-0.2,0.2-0.4,0.5-0.6,0.6c-0.2,0.2-0.4,0.3-0.7,0.4c-0.2,0.1-0.5,0.1-0.8,0.1
				c-0.4,0-0.7-0.1-1.1-0.2c-0.3-0.2-0.6-0.4-0.9-0.7c-0.2-0.3-0.4-0.7-0.5-1.1s-0.2-0.9-0.2-1.3c0-1,0.2-1.8,0.7-2.4s1.1-0.8,2-0.8
				c0.5,0,0.9,0.1,1.2,0.2c0.3,0.2,0.6,0.4,0.9,0.7v-2.4c0-0.3,0.1-0.6,0.2-0.8c0.1-0.2,0.3-0.3,0.6-0.3c0.2,0,0.4,0.1,0.6,0.2
				c0.1,0.2,0.2,0.4,0.2,0.7v7.1c0,0.3-0.1,0.5-0.2,0.7c-0.1,0.2-0.3,0.2-0.6,0.2c-0.2,0-0.4-0.1-0.5-0.2
				C-912.2,269-912.2,268.8-912.2,268.5z M-915.4,266.1c0,0.4,0.1,0.8,0.2,1.1c0.1,0.3,0.3,0.5,0.6,0.7c0.2,0.2,0.5,0.2,0.8,0.2
				s0.5-0.1,0.8-0.2c0.2-0.1,0.4-0.4,0.6-0.7c0.1-0.3,0.2-0.7,0.2-1.1s-0.1-0.8-0.2-1.1c-0.1-0.3-0.3-0.5-0.6-0.7
				c-0.2-0.2-0.5-0.2-0.8-0.2s-0.6,0.1-0.8,0.3c-0.2,0.2-0.4,0.4-0.5,0.7C-915.4,265.3-915.4,265.7-915.4,266.1z"/>
			<path id="XMLID_704_" d="M-905.1,266.5h-3.2c0,0.4,0.1,0.7,0.2,1c0.1,0.3,0.3,0.5,0.6,0.6c0.2,0.1,0.5,0.2,0.8,0.2
				c0.2,0,0.4,0,0.5-0.1c0.2,0,0.3-0.1,0.5-0.2s0.3-0.2,0.4-0.3c0.1-0.1,0.3-0.3,0.5-0.5c0.1-0.1,0.2-0.1,0.4-0.1s0.3,0,0.4,0.1
				c0.1,0.1,0.2,0.2,0.2,0.4c0,0.1-0.1,0.3-0.2,0.5c-0.1,0.2-0.3,0.4-0.5,0.6s-0.5,0.3-0.9,0.4c-0.3,0.1-0.8,0.2-1.2,0.2
				c-1,0-1.8-0.3-2.4-0.9c-0.6-0.6-0.9-1.4-0.9-2.4c0-0.5,0.1-0.9,0.2-1.3c0.1-0.4,0.4-0.8,0.6-1.1c0.3-0.3,0.6-0.5,1-0.7
				s0.8-0.2,1.3-0.2c0.6,0,1.2,0.1,1.6,0.4c0.5,0.3,0.8,0.6,1,1s0.3,0.9,0.3,1.3s-0.1,0.7-0.4,0.8
				C-904.3,266.4-904.7,266.5-905.1,266.5z M-908.3,265.6h2.9c0-0.6-0.2-1-0.4-1.2c-0.3-0.3-0.6-0.4-1-0.4s-0.7,0.1-1,0.4
				C-908,264.6-908.2,265-908.3,265.6z"/>
			<path id="XMLID_583_" d="M-897.7,267.3c0,0.4-0.1,0.8-0.3,1.1c-0.2,0.3-0.5,0.6-1,0.7c-0.4,0.2-0.9,0.2-1.6,0.2
				c-0.6,0-1.1-0.1-1.5-0.3c-0.4-0.2-0.7-0.4-0.9-0.7c-0.2-0.3-0.3-0.5-0.3-0.8c0-0.2,0.1-0.3,0.2-0.5c0.1-0.1,0.3-0.2,0.5-0.2
				s0.3,0,0.4,0.1c0.1,0.1,0.2,0.2,0.3,0.3c0.2,0.3,0.4,0.5,0.6,0.6c0.2,0.1,0.5,0.2,0.9,0.2c0.3,0,0.6-0.1,0.8-0.2s0.3-0.3,0.3-0.5
				c0-0.3-0.1-0.5-0.3-0.6s-0.6-0.3-1.1-0.4c-0.6-0.1-1-0.3-1.4-0.4c-0.4-0.2-0.6-0.4-0.8-0.6c-0.2-0.3-0.3-0.6-0.3-0.9
				s0.1-0.6,0.3-0.9s0.5-0.5,0.9-0.7s0.8-0.3,1.4-0.3c0.4,0,0.8,0,1.1,0.1s0.6,0.2,0.8,0.4c0.2,0.1,0.4,0.3,0.5,0.5s0.2,0.4,0.2,0.5
				c0,0.2-0.1,0.3-0.2,0.5c-0.1,0.1-0.3,0.2-0.5,0.2s-0.3,0-0.4-0.1c-0.1-0.1-0.3-0.2-0.4-0.4c-0.1-0.2-0.3-0.3-0.4-0.4
				c-0.2-0.1-0.4-0.1-0.7-0.1s-0.5,0.1-0.7,0.2s-0.3,0.3-0.3,0.5s0.1,0.3,0.2,0.4c0.1,0.1,0.3,0.2,0.6,0.3c0.2,0.1,0.6,0.2,1,0.3
				c0.5,0.1,0.9,0.3,1.2,0.4c0.3,0.2,0.6,0.4,0.7,0.6C-897.8,266.7-897.7,267-897.7,267.3z"/>
			<path id="XMLID_580_" d="M-896,262c-0.2,0-0.4-0.1-0.6-0.2c-0.2-0.1-0.2-0.3-0.2-0.6c0-0.2,0.1-0.4,0.2-0.6
				c0.2-0.1,0.4-0.2,0.6-0.2c0.2,0,0.4,0.1,0.6,0.2c0.2,0.1,0.2,0.3,0.2,0.6c0,0.3-0.1,0.4-0.2,0.6S-895.8,262-896,262z
				 M-895.2,263.7v4.7c0,0.3-0.1,0.6-0.2,0.7c-0.2,0.2-0.3,0.2-0.6,0.2c-0.2,0-0.4-0.1-0.6-0.3c-0.1-0.2-0.2-0.4-0.2-0.7v-4.6
				c0-0.3,0.1-0.6,0.2-0.7c0.1-0.2,0.3-0.2,0.6-0.2c0.2,0,0.4,0.1,0.6,0.2C-895.3,263.2-895.2,263.4-895.2,263.7z"/>
			<path id="XMLID_577_" d="M-888.1,264v4.7c0,0.5-0.1,1-0.2,1.4c-0.1,0.4-0.3,0.7-0.6,1s-0.6,0.4-1,0.6c-0.4,0.1-0.9,0.2-1.5,0.2
				s-1.1-0.1-1.5-0.2c-0.4-0.2-0.8-0.4-1-0.6s-0.4-0.5-0.4-0.8c0-0.2,0.1-0.4,0.2-0.5c0.1-0.1,0.3-0.2,0.5-0.2s0.4,0.1,0.6,0.3
				c0.1,0.1,0.2,0.2,0.3,0.3c0.1,0.1,0.2,0.2,0.3,0.3c0.1,0.1,0.2,0.1,0.4,0.2c0.2,0,0.3,0.1,0.5,0.1c0.4,0,0.7-0.1,1-0.2
				c0.2-0.1,0.4-0.3,0.5-0.5s0.1-0.4,0.2-0.7c0-0.2,0-0.6,0-1.2c-0.2,0.3-0.5,0.6-0.9,0.8c-0.3,0.2-0.7,0.3-1.2,0.3s-1-0.1-1.4-0.4
				s-0.7-0.7-0.9-1.2s-0.3-1.1-0.3-1.7c0-0.5,0.1-0.9,0.2-1.3c0.1-0.4,0.3-0.7,0.6-1c0.2-0.3,0.5-0.5,0.8-0.6s0.7-0.2,1.1-0.2
				c0.5,0,0.9,0.1,1.2,0.3c0.3,0.2,0.6,0.5,0.9,0.8v-0.2c0-0.3,0.1-0.5,0.2-0.7c0.1-0.2,0.3-0.2,0.5-0.2c0.3,0,0.5,0.1,0.6,0.3
				C-888.2,263.3-888.1,263.6-888.1,264z M-892.8,266c0,0.7,0.1,1.2,0.4,1.5c0.3,0.3,0.7,0.5,1.1,0.5c0.3,0,0.5-0.1,0.8-0.2
				c0.2-0.1,0.4-0.4,0.6-0.7c0.2-0.3,0.2-0.6,0.2-1.1c0-0.7-0.1-1.2-0.4-1.5c-0.3-0.4-0.7-0.6-1.1-0.6c-0.5,0-0.8,0.2-1.1,0.5
				C-892.7,264.9-892.8,265.4-892.8,266z"/>
			<path id="XMLID_575_" d="M-885.6,263.7v0.2c0.3-0.4,0.6-0.7,0.9-0.8c0.3-0.2,0.7-0.3,1.2-0.3c0.4,0,0.8,0.1,1.1,0.3
				c0.3,0.2,0.6,0.4,0.8,0.8c0.1,0.2,0.2,0.4,0.2,0.6s0,0.5,0,0.9v3c0,0.3-0.1,0.6-0.2,0.7c-0.1,0.2-0.3,0.2-0.6,0.2
				c-0.2,0-0.4-0.1-0.6-0.3c-0.2-0.2-0.2-0.4-0.2-0.7v-2.7c0-0.5-0.1-0.9-0.2-1.2c-0.1-0.3-0.4-0.4-0.9-0.4c-0.3,0-0.6,0.1-0.8,0.3
				c-0.2,0.2-0.4,0.4-0.5,0.7c-0.1,0.2-0.1,0.7-0.1,1.4v2c0,0.3-0.1,0.6-0.2,0.7c-0.2,0.2-0.3,0.2-0.6,0.2c-0.2,0-0.4-0.1-0.6-0.3
				c-0.2-0.2-0.2-0.4-0.2-0.7v-4.7c0-0.3,0.1-0.5,0.2-0.7c0.1-0.2,0.3-0.2,0.6-0.2c0.1,0,0.3,0,0.4,0.1c0.1,0.1,0.2,0.2,0.3,0.3
				C-885.6,263.3-885.6,263.5-885.6,263.7z"/>
			<path id="XMLID_572_" d="M-875.7,266.5h-3.2c0,0.4,0.1,0.7,0.2,1c0.1,0.3,0.3,0.5,0.6,0.6c0.2,0.1,0.5,0.2,0.8,0.2
				c0.2,0,0.4,0,0.5-0.1c0.2,0,0.3-0.1,0.5-0.2c0.1-0.1,0.3-0.2,0.4-0.3c0.1-0.1,0.3-0.3,0.5-0.5c0.1-0.1,0.2-0.1,0.4-0.1
				s0.3,0,0.4,0.1c0.1,0.1,0.2,0.2,0.2,0.4c0,0.1-0.1,0.3-0.2,0.5c-0.1,0.2-0.3,0.4-0.5,0.6s-0.5,0.3-0.9,0.4s-0.8,0.2-1.2,0.2
				c-1,0-1.8-0.3-2.4-0.9c-0.6-0.6-0.9-1.4-0.9-2.4c0-0.5,0.1-0.9,0.2-1.3c0.1-0.4,0.4-0.8,0.6-1.1c0.3-0.3,0.6-0.5,1-0.7
				s0.8-0.2,1.3-0.2c0.6,0,1.2,0.1,1.6,0.4c0.5,0.3,0.8,0.6,1,1s0.3,0.9,0.3,1.3s-0.1,0.7-0.4,0.8
				C-875,266.4-875.3,266.5-875.7,266.5z M-878.9,265.6h2.9c0-0.6-0.2-1-0.4-1.2c-0.3-0.3-0.6-0.4-1-0.4s-0.7,0.1-1,0.4
				C-878.7,264.6-878.8,265-878.9,265.6z"/>
			<path id="XMLID_569_" d="M-869.1,268.5v-0.2c-0.2,0.2-0.4,0.5-0.6,0.6c-0.2,0.2-0.4,0.3-0.7,0.4c-0.2,0.1-0.5,0.1-0.8,0.1
				c-0.4,0-0.7-0.1-1.1-0.2c-0.3-0.2-0.6-0.4-0.9-0.7c-0.2-0.3-0.4-0.7-0.5-1.1s-0.2-0.9-0.2-1.3c0-1,0.2-1.8,0.7-2.4s1.1-0.8,2-0.8
				c0.5,0,0.9,0.1,1.2,0.2c0.3,0.2,0.6,0.4,0.9,0.7v-2.4c0-0.3,0.1-0.6,0.2-0.8c0.1-0.2,0.3-0.3,0.6-0.3c0.2,0,0.4,0.1,0.6,0.2
				c0.1,0.2,0.2,0.4,0.2,0.7v7.1c0,0.3-0.1,0.5-0.2,0.7c-0.1,0.2-0.3,0.2-0.6,0.2c-0.2,0-0.4-0.1-0.5-0.2
				C-869,269-869.1,268.8-869.1,268.5z M-872.3,266.1c0,0.4,0.1,0.8,0.2,1.1c0.1,0.3,0.3,0.5,0.6,0.7c0.2,0.2,0.5,0.2,0.8,0.2
				s0.5-0.1,0.8-0.2c0.2-0.1,0.4-0.4,0.6-0.7c0.1-0.3,0.2-0.7,0.2-1.1s-0.1-0.8-0.2-1.1c-0.1-0.3-0.3-0.5-0.6-0.7
				c-0.2-0.2-0.5-0.2-0.8-0.2s-0.6,0.1-0.8,0.3c-0.2,0.2-0.4,0.4-0.5,0.7C-872.2,265.3-872.3,265.7-872.3,266.1z"/>
			<path id="XMLID_565_" d="M-862.5,261.3v2.5c0.3-0.3,0.6-0.6,0.9-0.7s0.7-0.3,1.2-0.3s1,0.1,1.4,0.4s0.7,0.6,0.9,1.1
				s0.3,1.1,0.3,1.7c0,0.5-0.1,0.9-0.2,1.3c-0.1,0.4-0.3,0.8-0.5,1.1c-0.2,0.3-0.5,0.5-0.9,0.7c-0.3,0.2-0.7,0.2-1.1,0.2
				c-0.3,0-0.5,0-0.7-0.1s-0.4-0.1-0.6-0.2c-0.2-0.1-0.3-0.2-0.4-0.3c-0.1-0.1-0.3-0.3-0.4-0.5v0.2c0,0.3-0.1,0.5-0.2,0.7
				c-0.1,0.2-0.3,0.2-0.6,0.2c-0.2,0-0.4-0.1-0.5-0.2c-0.1-0.2-0.2-0.4-0.2-0.7v-7.1c0-0.3,0.1-0.6,0.2-0.7c0.1-0.2,0.3-0.3,0.6-0.3
				s0.4,0.1,0.6,0.2C-862.5,260.8-862.5,261-862.5,261.3z M-862.4,266.1c0,0.6,0.1,1.1,0.4,1.5c0.3,0.3,0.7,0.5,1.2,0.5
				c0.4,0,0.8-0.2,1.1-0.5c0.3-0.4,0.4-0.9,0.4-1.5c0-0.4-0.1-0.8-0.2-1.1c-0.1-0.3-0.3-0.5-0.5-0.7s-0.5-0.3-0.8-0.3
				s-0.6,0.1-0.8,0.3c-0.2,0.2-0.4,0.4-0.6,0.7C-862.3,265.3-862.4,265.7-862.4,266.1z"/>
			<path id="XMLID_563_" d="M-855.6,269.6l0.1-0.4l-2-5c-0.1-0.3-0.2-0.5-0.2-0.6s0-0.3,0.1-0.4s0.2-0.2,0.3-0.3s0.3-0.1,0.4-0.1
				c0.2,0,0.4,0.1,0.5,0.2s0.2,0.4,0.3,0.6l1.4,4l1.3-3.7c0.1-0.3,0.2-0.5,0.3-0.7s0.2-0.3,0.3-0.3c0.1-0.1,0.2-0.1,0.4-0.1
				c0.1,0,0.2,0,0.4,0.1c0.1,0.1,0.2,0.2,0.3,0.3c0.1,0.1,0.1,0.2,0.1,0.3c0,0.1,0,0.2-0.1,0.3c0,0.1-0.1,0.3-0.1,0.4l-2.1,5.5
				c-0.2,0.5-0.4,0.9-0.5,1.1c-0.2,0.3-0.4,0.5-0.7,0.6s-0.7,0.2-1.2,0.2s-0.8-0.1-1.1-0.2c-0.2-0.1-0.4-0.3-0.4-0.6
				c0-0.2,0.1-0.3,0.2-0.4c0.1-0.1,0.3-0.2,0.5-0.2c0.1,0,0.2,0,0.3,0s0.2,0,0.3,0c0.2,0,0.3,0,0.4-0.1c0.1-0.1,0.2-0.2,0.3-0.3
				C-855.8,270.1-855.7,269.9-855.6,269.6z"/>
		</g>
		<g id="XMLID_461_">
			<g id="XMLID_538_">
				<path id="XMLID_561_" d="M-832.1,262.9h0.4v-0.5c0-0.5,0.1-0.9,0.2-1.2c0.1-0.3,0.3-0.5,0.7-0.7c0.3-0.1,0.7-0.2,1.3-0.2
					c1,0,1.4,0.2,1.4,0.7c0,0.1,0,0.3-0.2,0.4c-0.1,0.1-0.2,0.2-0.3,0.2s-0.2,0-0.3,0s-0.3,0-0.4,0c-0.3,0-0.5,0.1-0.6,0.3
					c-0.1,0.2-0.1,0.4-0.1,0.7v0.4h0.4c0.6,0,0.9,0.2,0.9,0.6c0,0.3-0.1,0.4-0.2,0.5c-0.2,0.1-0.4,0.1-0.7,0.1h-0.4v4.3
					c0,0.3-0.1,0.6-0.2,0.7c-0.2,0.2-0.3,0.3-0.6,0.3c-0.2,0-0.4-0.1-0.6-0.3c-0.2-0.2-0.2-0.4-0.2-0.7v-4.3h-0.4
					c-0.2,0-0.4-0.1-0.6-0.2c-0.1-0.1-0.2-0.2-0.2-0.4C-832.9,263.1-832.6,262.9-832.1,262.9"/>
				<path id="XMLID_560_" d="M-826.8,267v1.4c0,0.3-0.1,0.6-0.2,0.7c-0.2,0.2-0.3,0.2-0.6,0.2c-0.2,0-0.4-0.1-0.6-0.3
					c-0.1-0.2-0.2-0.4-0.2-0.7v-4.5c0-0.7,0.3-1.1,0.8-1.1c0.3,0,0.5,0.1,0.6,0.3c0.1,0.2,0.2,0.4,0.2,0.8c0.2-0.3,0.4-0.6,0.6-0.8
					c0.2-0.2,0.5-0.3,0.8-0.3s0.7,0.1,1,0.3c0.3,0.2,0.5,0.4,0.5,0.7c0,0.2-0.1,0.4-0.2,0.5c-0.1,0.1-0.3,0.2-0.4,0.2
					c-0.1,0-0.2,0-0.4-0.1s-0.4-0.1-0.6-0.1c-0.2,0-0.4,0.1-0.6,0.2c-0.2,0.1-0.3,0.3-0.4,0.6c-0.1,0.2-0.1,0.5-0.2,0.9
					C-826.8,266.1-826.8,266.6-826.8,267"/>
				<path id="XMLID_557_" d="M-819.3,266.5h-3.2c0,0.4,0.1,0.7,0.2,1c0.1,0.3,0.3,0.5,0.6,0.6c0.2,0.1,0.5,0.2,0.8,0.2
					c0.2,0,0.4,0,0.5-0.1c0.2,0,0.3-0.1,0.5-0.2s0.3-0.2,0.4-0.3c0.1-0.1,0.3-0.3,0.5-0.4c0.1-0.1,0.2-0.1,0.4-0.1s0.3,0,0.4,0.1
					c0.1,0.1,0.2,0.2,0.2,0.4c0,0.1-0.1,0.3-0.2,0.5c-0.1,0.2-0.3,0.4-0.5,0.6s-0.5,0.3-0.9,0.4c-0.3,0.1-0.8,0.2-1.2,0.2
					c-1,0-1.9-0.3-2.4-0.9c-0.6-0.6-0.9-1.4-0.9-2.4c0-0.5,0.1-0.9,0.2-1.3c0.1-0.4,0.3-0.8,0.6-1.1c0.3-0.3,0.6-0.5,1-0.7
					s0.8-0.2,1.3-0.2c0.6,0,1.2,0.1,1.6,0.4c0.5,0.3,0.8,0.6,1,1s0.3,0.9,0.3,1.3s-0.1,0.7-0.4,0.8
					C-818.6,266.4-818.9,266.5-819.3,266.5 M-822.5,265.6h2.9c0-0.6-0.2-1-0.4-1.2c-0.3-0.3-0.6-0.4-1-0.4s-0.7,0.1-1,0.4
					C-822.3,264.6-822.5,265-822.5,265.6"/>
				<path id="XMLID_553_" d="M-812.6,266.5h-3.2c0,0.4,0.1,0.7,0.2,1c0.1,0.3,0.3,0.5,0.6,0.6c0.2,0.1,0.5,0.2,0.8,0.2
					c0.2,0,0.4,0,0.5-0.1c0.2,0,0.3-0.1,0.5-0.2s0.3-0.2,0.4-0.3c0.1-0.1,0.3-0.3,0.5-0.4c0.1-0.1,0.2-0.1,0.4-0.1s0.3,0,0.4,0.1
					c0.1,0.1,0.2,0.2,0.2,0.4c0,0.1-0.1,0.3-0.2,0.5c-0.1,0.2-0.3,0.4-0.5,0.6s-0.5,0.3-0.9,0.4c-0.3,0.1-0.8,0.2-1.2,0.2
					c-1,0-1.8-0.3-2.4-0.9c-0.6-0.6-0.9-1.4-0.9-2.4c0-0.5,0.1-0.9,0.2-1.3c0.1-0.4,0.3-0.8,0.6-1.1c0.3-0.3,0.6-0.5,1-0.7
					s0.8-0.2,1.3-0.2c0.6,0,1.2,0.1,1.6,0.4c0.5,0.3,0.8,0.6,1,1s0.3,0.9,0.3,1.3s-0.1,0.7-0.4,0.8
					C-811.9,266.4-812.2,266.5-812.6,266.5 M-815.8,265.6h2.9c0-0.6-0.2-1-0.4-1.2c-0.3-0.3-0.6-0.4-1-0.4s-0.7,0.1-1,0.4
					C-815.6,264.6-815.7,265-815.8,265.6"/>
				<path id="XMLID_549_" d="M-809.1,263.7v0.2c0.3-0.4,0.6-0.7,1-0.8c0.3-0.2,0.7-0.3,1.1-0.3c0.5,0,1,0.1,1.4,0.4s0.7,0.6,1,1.1
					c0.2,0.5,0.4,1.1,0.4,1.8c0,0.5-0.1,1-0.2,1.4c-0.1,0.4-0.3,0.8-0.6,1c-0.2,0.3-0.5,0.5-0.9,0.7c-0.3,0.2-0.7,0.2-1.1,0.2
					c-0.5,0-0.9-0.1-1.2-0.3c-0.3-0.2-0.6-0.5-0.9-0.8v2.4c0,0.7-0.3,1.1-0.8,1.1c-0.3,0-0.5-0.1-0.6-0.3c-0.1-0.2-0.1-0.5-0.1-0.8
					v-7c0-0.3,0.1-0.5,0.2-0.7c0.1-0.1,0.3-0.2,0.6-0.2c0.2,0,0.4,0.1,0.6,0.2C-809.1,263.2-809.1,263.4-809.1,263.7 M-805.9,266.1
					c0-0.4-0.1-0.8-0.2-1.1c-0.1-0.3-0.3-0.5-0.5-0.7s-0.5-0.2-0.8-0.2c-0.4,0-0.8,0.2-1.1,0.5c-0.3,0.4-0.5,0.9-0.5,1.6
					c0,0.6,0.2,1.1,0.5,1.5s0.7,0.5,1.1,0.5c0.3,0,0.5-0.1,0.7-0.2c0.2-0.2,0.4-0.4,0.6-0.7C-805.9,266.9-805.9,266.5-805.9,266.1"
					/>
				<path id="XMLID_546_" d="M-802.6,262c-0.2,0-0.4-0.1-0.6-0.2c-0.2-0.1-0.2-0.3-0.2-0.6c0-0.2,0.1-0.4,0.2-0.6
					c0.2-0.1,0.4-0.2,0.6-0.2c0.2,0,0.4,0.1,0.6,0.2c0.2,0.1,0.2,0.3,0.2,0.6c0,0.3-0.1,0.4-0.2,0.6C-802.2,262-802.4,262-802.6,262
					 M-801.8,263.7v4.7c0,0.3-0.1,0.6-0.2,0.7c-0.2,0.2-0.4,0.3-0.6,0.3c-0.2,0-0.4-0.1-0.6-0.3c-0.1-0.2-0.2-0.4-0.2-0.7v-4.6
					c0-0.3,0.1-0.6,0.2-0.7c0.2-0.2,0.3-0.2,0.6-0.2c0.2,0,0.4,0.1,0.6,0.2C-801.9,263.2-801.8,263.4-801.8,263.7"/>
				<path id="XMLID_545_" d="M-796.6,268.6l-1.4-2.4l-0.9,0.8v1.3c0,0.3-0.1,0.6-0.2,0.7c-0.2,0.2-0.4,0.3-0.6,0.3
					c-0.2,0-0.4-0.1-0.6-0.3c-0.1-0.2-0.2-0.4-0.2-0.7v-6.9c0-0.4,0.1-0.6,0.2-0.8c0.1-0.2,0.3-0.3,0.6-0.3c0.2,0,0.4,0.1,0.6,0.3
					c0.1,0.2,0.2,0.4,0.2,0.8v3.9l1.8-1.9c0.2-0.2,0.4-0.4,0.5-0.5s0.3-0.1,0.4-0.1c0.2,0,0.4,0.1,0.5,0.2s0.2,0.3,0.2,0.5
					s-0.2,0.6-0.7,1l-0.9,0.8l1.7,2.6c0.1,0.2,0.2,0.3,0.3,0.4s0.1,0.2,0.1,0.3c0,0.3-0.1,0.5-0.2,0.6c-0.1,0.1-0.3,0.2-0.6,0.2
					c-0.2,0-0.4-0.1-0.5-0.2C-796.3,269.1-796.4,268.9-796.6,268.6"/>
				<path id="XMLID_544_" d="M-793.1,269.4c-0.2,0-0.5-0.1-0.6-0.2c-0.2-0.2-0.3-0.4-0.3-0.7c0-0.2,0.1-0.4,0.3-0.6s0.4-0.3,0.6-0.3
					c0.2,0,0.5,0.1,0.6,0.3c0.2,0.2,0.3,0.4,0.3,0.6c0,0.3-0.1,0.5-0.3,0.7C-792.6,269.3-792.8,269.4-793.1,269.4"/>
				<path id="XMLID_543_" d="M-785,267.4c0,0.2-0.1,0.4-0.2,0.6c-0.1,0.2-0.3,0.4-0.6,0.7c-0.2,0.2-0.6,0.4-0.9,0.5
					c-0.4,0.1-0.8,0.2-1.3,0.2c-1,0-1.8-0.3-2.3-0.9c-0.6-0.6-0.8-1.4-0.8-2.4c0-0.7,0.1-1.3,0.4-1.8c0.3-0.5,0.6-0.9,1.1-1.2
					c0.5-0.3,1.1-0.4,1.7-0.4c0.4,0,0.8,0.1,1.2,0.2s0.6,0.3,0.9,0.5c0.2,0.2,0.4,0.4,0.6,0.6c0.1,0.2,0.2,0.4,0.2,0.6
					s-0.1,0.4-0.2,0.5c-0.1,0.1-0.3,0.2-0.5,0.2c-0.1,0-0.2,0-0.3-0.1s-0.2-0.2-0.3-0.3c-0.2-0.3-0.4-0.5-0.6-0.7
					c-0.2-0.2-0.5-0.2-0.8-0.2c-0.5,0-0.9,0.2-1.2,0.6s-0.4,0.9-0.4,1.5c0,0.3,0,0.6,0.1,0.8c0.1,0.3,0.2,0.5,0.3,0.7
					s0.3,0.3,0.5,0.4s0.4,0.1,0.7,0.1s0.6-0.1,0.8-0.2c0.2-0.2,0.4-0.4,0.6-0.7c0.1-0.2,0.2-0.3,0.3-0.4s0.3-0.2,0.4-0.2
					c0.2,0,0.4,0.1,0.5,0.2C-785.1,267-785,267.2-785,267.4"/>
				<path id="XMLID_540_" d="M-778,266.1c0,0.5-0.1,0.9-0.2,1.3c-0.2,0.4-0.4,0.8-0.7,1c-0.3,0.3-0.6,0.5-1,0.7s-0.8,0.2-1.3,0.2
					s-0.9-0.1-1.3-0.2c-0.4-0.2-0.7-0.4-1-0.7c-0.3-0.3-0.5-0.6-0.7-1c-0.1-0.4-0.2-0.8-0.2-1.3s0.1-0.9,0.2-1.3
					c0.2-0.4,0.4-0.8,0.6-1c0.3-0.3,0.6-0.5,1-0.7s0.8-0.2,1.3-0.2s0.9,0.1,1.3,0.2c0.4,0.2,0.7,0.4,1,0.7c0.3,0.3,0.5,0.6,0.6,1
					C-778.1,265.2-778,265.6-778,266.1 M-779.6,266.1c0-0.7-0.1-1.2-0.4-1.5c-0.3-0.4-0.7-0.6-1.2-0.6c-0.3,0-0.6,0.1-0.8,0.2
					c-0.2,0.2-0.4,0.4-0.6,0.7c-0.1,0.3-0.2,0.7-0.2,1.1s0.1,0.8,0.2,1.1c0.1,0.3,0.3,0.6,0.6,0.7c0.2,0.2,0.5,0.3,0.8,0.3
					c0.5,0,0.9-0.2,1.2-0.6C-779.8,267.3-779.6,266.7-779.6,266.1"/>
				<path id="XMLID_539_" d="M-771.8,266.2v2.2c0,0.3-0.1,0.6-0.2,0.8c-0.2,0.2-0.4,0.3-0.6,0.3c-0.2,0-0.4-0.1-0.6-0.3
					c-0.2-0.2-0.2-0.4-0.2-0.8v-2.6c0-0.4,0-0.7,0-1c0-0.2-0.1-0.4-0.2-0.6c-0.1-0.1-0.3-0.2-0.6-0.2c-0.5,0-0.9,0.2-1,0.5
					c-0.2,0.4-0.3,0.9-0.3,1.6v2.2c0,0.3-0.1,0.6-0.2,0.8c-0.2,0.2-0.4,0.3-0.6,0.3c-0.2,0-0.4-0.1-0.6-0.3
					c-0.2-0.2-0.2-0.4-0.2-0.8v-4.6c0-0.3,0.1-0.5,0.2-0.7c0.1-0.2,0.3-0.2,0.6-0.2c0.2,0,0.4,0.1,0.6,0.2c0.1,0.1,0.2,0.4,0.2,0.6
					v0.2c0.3-0.3,0.6-0.6,0.9-0.7c0.3-0.2,0.7-0.2,1.1-0.2c0.4,0,0.8,0.1,1,0.2c0.3,0.2,0.5,0.4,0.7,0.7c0.3-0.3,0.6-0.6,0.9-0.7
					c0.3-0.2,0.7-0.2,1-0.2c0.4,0,0.8,0.1,1.1,0.3c0.3,0.2,0.6,0.4,0.7,0.7c0.1,0.3,0.2,0.8,0.2,1.4v3.2c0,0.3-0.1,0.6-0.2,0.8
					c-0.2,0.2-0.4,0.3-0.6,0.3c-0.2,0-0.4-0.1-0.6-0.3c-0.2-0.2-0.2-0.4-0.2-0.8v-2.7c0-0.3,0-0.6,0-0.8c0-0.2-0.1-0.4-0.2-0.5
					c-0.1-0.1-0.3-0.2-0.6-0.2c-0.2,0-0.4,0.1-0.6,0.2c-0.2,0.1-0.3,0.3-0.5,0.5C-771.8,265-771.8,265.5-771.8,266.2"/>
			</g>
			<g id="XMLID_462_">
				<path id="XMLID_537_" d="M-847.3,265.7L-847.3,265.7L-847.3,265.7z"/>
				<path id="XMLID_536_" d="M-847.2,266.2L-847.2,266.2c0-0.1-0.1-0.3-0.1-0.4C-847.2,265.9-847.2,266.1-847.2,266.2z"/>
				<path id="XMLID_535_" d="M-846.6,267.7C-846.7,267.7-846.7,267.7-846.6,267.7C-846.7,267.7-846.7,267.7-846.6,267.7z"/>
				<path id="XMLID_534_" d="M-846.7,267.6L-846.7,267.6L-846.7,267.6z"/>
				<path id="XMLID_533_" d="M-847,266.8c0.1,0.3,0.2,0.5,0.3,0.7C-846.9,267.3-847,267-847,266.8L-847,266.8z"/>
				<path id="XMLID_532_" d="M-841,259.5c0.3,0,0.5,0,0.8,0.1l0.1-0.5c0,0-0.7-0.2-1.7-0.1l-0.1-0.3c0.3-0.1,0.5-0.3,0.5-0.6
					c0-0.4-0.3-0.7-0.7-0.7s-0.7,0.3-0.7,0.7c0,0.3,0.2,0.6,0.5,0.6l0.1,0.3c-1,0.1-1.8,0.5-1.8,0.5l0.1,0.4
					c0.6-0.2,1.2-0.3,1.6-0.4C-841.6,259.5-841.3,259.5-841,259.5z"/>
				<path id="XMLID_531_" d="M-846.7,261.9L-846.7,261.9C-846.6,261.9-846.6,261.8-846.7,261.9l-0.1-0.2l-0.3-0.2
					c0,0-0.5,0.5-0.9,1.3c0,0,0-0.1-0.1-0.1c-0.1-0.1-0.3-0.2-0.5-0.2l0,0c-0.1,0-0.2,0-0.3-0.1c0.1-0.1,0.1-0.2,0.1-0.3
					c0-0.2-0.2-0.4-0.4-0.4s-0.4,0.2-0.4,0.4c0,0.2,0.2,0.4,0.4,0.4h0.1c0.1,0.1,0.3,0.2,0.5,0.2c0.1,0,0.2,0,0.3,0.1
					s0.1,0.2,0.1,0.3l0,0c-0.3,0.7-0.2,1.7-0.2,1.7h0.7c0-0.3,0.1-0.9,0.2-1.4C-847.1,262.5-846.7,261.9-846.7,261.9z"/>
				<path id="XMLID_530_" d="M-835.2,260c-0.2,0-0.4,0.2-0.4,0.4v0.1c-0.1,0.1-0.2,0.3-0.2,0.5c0,0.1,0,0.2-0.1,0.3
					c-0.1,0-0.1,0.1-0.2,0.1c-0.5-0.7-1.1-1.1-1.1-1.1l-0.5,0.5c0.4,0.3,0.7,0.7,1.1,1.2c0.2,0.4,0.5,0.8,0.7,1.3l0.6-0.3
					c0,0-0.3-0.7-0.7-1.4c0.1,0,0.1-0.1,0.2-0.1c0.1-0.1,0.2-0.3,0.2-0.5c0-0.1,0-0.2,0.1-0.3c0.1,0.1,0.2,0.1,0.3,0.1
					c0.2,0,0.4-0.2,0.4-0.4C-834.8,260.2-835,260-835.2,260z"/>
				<path id="XMLID_529_" d="M-836.9,265.8c-0.9,0.4-2.3,1-4.2,1.3c-0.7,0.1-1.5,0.1-2.1,0.1c-0.9,0-1.6-0.1-2.2-0.1
					c-0.7-0.1-1.2-0.2-1.5-0.3c0.1,0.2,0.2,0.5,0.3,0.7l0,0v0.1v0.1l0,0c0.2,0.4,0.4,0.7,0.7,1c0.9,1,1.8,1.1,1.8,1.1l0,0l0,0
					c0,0,0.8,0.3,2.1,0.3c1.2,0,2.4-0.2,3.5-0.7c0.8-0.4,1.6-1.1,2-1.7c0.3-0.5,0.5-0.9,0.7-1.4c0.1-0.3,0.1-0.7,0.1-1.1
					C-836,265.3-836.4,265.5-836.9,265.8z"/>
				<path id="XMLID_463_" d="M-846.4,262.1c0,0-0.4,0.6-0.7,1.4c-0.2,0.6-0.2,1.5-0.2,1.5l0,0c0,0.2,0,0.4,0,0.6l0,0v0.1
					c0,0.1,0,0.3,0.1,0.4c0.4,0.1,3,0.7,6,0.3c1.8-0.3,3.2-0.8,4.1-1.2c0.7-0.3,1.2-0.6,1.3-0.8c-0.2-0.6-0.7-1.7-1.1-2.3
					c-1.3-1.8-2.6-2.3-3.3-2.4c-0.3,0-0.5-0.1-0.8-0.1s-0.6,0-1.1,0.1c-0.5,0-1,0.2-1.6,0.4c-0.8,0.3-1.6,0.7-2.2,1.3l0,0
					C-846,261.7-846.2,261.8-846.4,262.1z M-838.7,261.7c0.6,0,1.1,0.5,1.1,1.1s-0.5,1.1-1.1,1.1s-1.1-0.5-1.1-1.1
					S-839.3,261.7-838.7,261.7z M-843.9,261.6c1,0,1.8,0.8,1.8,1.8s-0.8,1.8-1.8,1.8s-1.8-0.8-1.8-1.8
					C-845.6,262.4-844.8,261.6-843.9,261.6z"/>
			</g>
		</g>
	</g>
</g>
</svg>
